#N canvas 486 45 865 678 10;
#X floatatom 193 277 5 0 0 0 - - -;
#X obj 268 598 dac~;
#X obj 395 549 hsl 128 15 0 1.2 0 0 empty empty volumen -2 -6 0 10
-4034 -1 -1 0 1;
#X obj 220 321 mtof;
#X floatatom 247 361 6 0 0 0 - - -;
#X obj 273 560 *~;
#X obj 275 417 osc~ 220;
#X floatatom 395 425 5 0 0 0 - - -;
#X floatatom 391 598 5 0 0 0 - - -;
#X obj 192 103 dumpOSC 12000;
#X obj 193 172 route mimensaje;
#X obj 193 238 unpack f f;
#X text 237 277 -------> datos de la posición de la cara en la proyeccion
;
#X text 252 319 ----------> convierte el valor en frecuencia;
#X text 437 425 ------> datos desde el sensor de ultrasonido;
#X text 277 102 -----> conexión con Processing via puerto;
#X text 291 160 ----> recibe los datos desde Processing;
#X text 263 236 -----> desempaqueta los datos recibidos;
#X connect 0 0 3 0;
#X connect 2 0 5 1;
#X connect 2 0 8 0;
#X connect 3 0 4 0;
#X connect 4 0 6 0;
#X connect 5 0 1 0;
#X connect 5 0 1 1;
#X connect 6 0 5 0;
#X connect 7 0 2 0;
#X connect 9 0 10 0;
#X connect 10 0 11 0;
#X connect 11 0 0 0;
#X connect 11 1 7 0;
